Coordinates
version=1
nRows=34
nColumns=34
inDegrees=yes
inDegrees=no

Units are S.I. units (second, meters, Newtons, ...)
If the header above contains a line with 'inDegrees', this indicates whether rotational values are in degrees (yes) or radians (no).

endheader
time	pelvis_tilt	pelvis_list	pelvis_rotation	pelvis_tx	pelvis_ty	pelvis_tz	hip_flexion_r	hip_adduction_r	hip_rotation_r	knee_angle_r	ankle_angle_r	subtalar_angle_r	mtp_angle_r	hip_flexion_l	hip_adduction_l	hip_rotation_l	knee_angle_l	ankle_angle_l	subtalar_angle_l	mtp_angle_l	lumbar_extension	lumbar_bending	lumbar_rotation	arm_flex_r	arm_add_r	arm_rot_r	elbow_flex_r	pro_sup_r	arm_flex_l	arm_add_l	arm_rot_l	elbow_flex_l	pro_sup_l
0.000000 0.324847 -0.137840 -0.073119 -0.014411 0.007912 -0.004361 1.312706 0.077371 -0.287017 0.693952 -0.393570 -0.566748 0.000000 1.413123 -0.134927 0.156184 1.050831 0.141803 -0.168677 0.000000 -1.117993 0.011703 -0.188009 2.534483 0.303162 0.787183 0.671112 1.472873 1.534380 -0.350962 0.253023 0.483727 1.389758
0.016667 0.172369 -0.181240 -0.132528 -0.014153 0.007905 -0.004315 1.418563 0.136369 -0.281753 0.687226 -0.397965 -0.484960 0.000000 1.520749 -0.134968 0.139978 0.928397 -0.074830 -0.451080 0.000000 -0.980817 -0.075147 -0.173894 2.378793 0.224257 0.636312 0.866443 1.458394 1.512144 -0.348460 0.226045 0.520639 1.372793
0.033333 0.092226 -0.202282 -0.138119 -0.014287 0.007777 -0.004445 1.510728 0.117064 -0.329278 0.767755 -0.327668 -0.440087 0.000000 1.587651 -0.110669 0.153158 0.890447 -0.143483 -0.512071 0.000000 -0.921540 -0.082911 -0.149072 2.265489 0.197083 0.536063 1.004169 1.463871 1.471571 -0.325310 0.169188 0.535573 1.343303
0.050000 0.034086 -0.237306 -0.136684 -0.014095 0.007702 -0.004432 1.579317 0.117301 -0.386428 0.825437 -0.243421 -0.359146 0.000000 1.663194 -0.106223 0.176158 0.874775 -0.175251 -0.550591 0.000000 -0.873773 -0.073464 -0.115092 2.155906 0.182811 0.476704 1.100928 1.470443 1.375890 -0.305498 0.063466 0.613114 1.297125
0.066667 0.007604 -0.267050 -0.123597 -0.014160 0.007765 -0.004492 1.604959 0.108011 -0.405141 0.861687 -0.146039 -0.301776 0.000000 1.685777 -0.085996 0.182880 0.859087 -0.188775 -0.563627 0.000000 -0.872794 -0.046839 -0.093445 2.095796 0.189163 0.492447 1.144618 1.462049 1.309536 -0.308290 0.015456 0.653250 1.273324
0.083333 -0.015493 -0.278767 -0.126877 -0.014158 0.007725 -0.004466 1.638842 0.109097 -0.411462 0.901186 -0.034880 -0.234861 0.000000 1.718334 -0.085444 0.190923 0.875788 -0.190930 -0.533263 0.000000 -0.871545 -0.040622 -0.059469 2.054953 0.198532 0.506449 1.152057 1.442073 1.250912 -0.302368 -0.018619 0.678521 1.254585
0.100000 -0.054519 -0.290516 -0.124136 -0.013401 0.007723 -0.004236 1.706544 0.107659 -0.406270 0.977678 0.113779 -0.121066 0.000000 1.787122 -0.089254 0.187788 0.926743 -0.157945 -0.503345 0.000000 -0.815976 -0.033550 -0.051345 1.929067 0.221617 0.501499 1.241782 1.415415 1.097693 -0.318742 -0.089226 0.761105 1.230747
0.116667 -0.070262 -0.295559 -0.120095 -0.013274 0.007762 -0.004134 1.737848 0.114823 -0.377874 1.027564 0.238192 -0.009851 0.000000 1.812823 -0.108155 0.160317 0.953849 -0.095016 -0.432922 0.000000 -0.785536 -0.037762 -0.050893 1.827224 0.258518 0.501324 1.308229 1.394526 0.965318 -0.336214 -0.161253 0.822772 1.214535
0.133333 -0.066569 -0.290684 -0.111301 -0.013338 0.007794 -0.004218 1.740619 0.110965 -0.357230 1.054017 0.340934 0.076444 0.000000 1.808025 -0.112343 0.132689 0.959320 -0.085671 -0.410802 0.000000 -0.780394 -0.051742 -0.047823 1.758579 0.275663 0.499057 1.339236 1.385985 0.881082 -0.339549 -0.192211 0.837269 1.208757
0.150000 -0.033344 -0.283032 -0.096351 -0.013514 0.007772 -0.004290 1.712037 0.103333 -0.332228 1.048906 0.371252 0.074185 0.000000 1.771993 -0.107990 0.105029 0.944491 -0.086708 -0.380266 0.000000 -0.814953 -0.064180 -0.025889 1.742656 0.273003 0.485949 1.331053 1.382074 0.840514 -0.321077 -0.198872 0.848464 1.208755
0.166667 -0.006912 -0.268295 -0.075031 -0.013515 0.007876 -0.004417 1.679658 0.081615 -0.306641 1.036739 0.349736 0.045704 0.000000 1.731041 -0.089881 0.073205 0.916044 -0.104994 -0.354329 0.000000 -0.848126 -0.069576 -0.013684 1.726283 0.270271 0.462494 1.324378 1.379058 0.804915 -0.296947 -0.198019 0.863476 1.211255
0.183333 0.024695 -0.252308 -0.055946 -0.013739 0.008000 -0.004533 1.631283 0.064181 -0.287684 1.001289 0.301408 0.009410 0.000000 1.677589 -0.075132 0.046607 0.881778 -0.115806 -0.313167 0.000000 -0.892295 -0.071939 -0.001336 1.728305 0.270382 0.427394 1.296844 1.376088 0.782590 -0.271410 -0.191033 0.875744 1.218379
0.200000 0.059615 -0.237344 -0.023512 -0.013848 0.008016 -0.004589 1.591306 0.036750 -0.274422 0.990408 0.316410 0.016804 0.000000 1.629752 -0.047535 0.024381 0.849966 -0.132311 -0.299677 0.000000 -0.930606 -0.064759 0.015901 1.735579 0.259498 0.402218 1.253545 1.374090 0.767756 -0.235934 -0.175039 0.887158 1.225136
0.216667 0.085473 -0.226004 -0.002876 -0.013926 0.007905 -0.004646 1.573272 0.018929 -0.266213 0.990596 0.363168 0.055269 0.000000 1.609915 -0.030369 0.010103 0.848295 -0.138176 -0.277673 0.000000 -0.951597 -0.053730 0.046556 1.743935 0.246988 0.387079 1.202290 1.371995 0.735450 -0.199632 -0.155205 0.898110 1.234078
0.233333 0.111295 -0.215698 0.017971 -0.014111 0.008092 -0.004722 1.536846 0.003251 -0.255399 0.976457 0.377354 0.061429 0.000000 1.561208 -0.011523 0.002365 0.811229 -0.151825 -0.295477 0.000000 -0.981194 -0.043934 0.073150 1.751271 0.230859 0.394011 1.159152 1.370942 0.704610 -0.168545 -0.144194 0.906733 1.242542
0.250000 0.134009 -0.205377 0.031008 -0.014166 0.008140 -0.004742 1.507243 -0.006759 -0.250860 0.954006 0.400408 0.043110 0.000000 1.522738 -0.000215 -0.006461 0.779677 -0.139938 -0.272772 0.000000 -0.998002 -0.041101 0.099104 1.737152 0.217760 0.402157 1.121623 1.368284 0.666407 -0.146193 -0.136271 0.914819 1.250663
0.266667 0.155178 -0.197524 0.046157 -0.014244 0.008120 -0.004750 1.475227 -0.015131 -0.241867 0.914672 0.369654 0.001963 0.000000 1.492031 0.010976 -0.014677 0.750142 -0.141315 -0.274900 0.000000 -1.007892 -0.036878 0.127149 1.721323 0.206538 0.386045 1.074893 1.358385 0.616653 -0.125504 -0.129612 0.933672 1.260294
0.283333 0.179336 -0.191792 0.050913 -0.014489 0.008177 -0.004896 1.444824 -0.018268 -0.238508 0.909142 0.377977 -0.005531 0.000000 1.445596 0.020682 -0.022101 0.702976 -0.150670 -0.261562 0.000000 -1.017818 -0.036366 0.161285 1.699293 0.181043 0.376293 1.043055 1.354004 0.564952 -0.099602 -0.122414 0.943255 1.262509
0.300000 0.202953 -0.186336 0.057054 -0.014372 0.008311 -0.004760 1.413803 -0.014022 -0.234184 0.895749 0.382803 -0.000408 0.000000 1.403985 0.018633 -0.031176 0.668891 -0.147064 -0.241917 0.000000 -1.025820 -0.038212 0.194907 1.665395 0.166561 0.377943 1.015991 1.346856 0.500585 -0.091420 -0.112564 0.954032 1.265377
0.316667 0.221418 -0.183824 0.058835 -0.014426 0.008325 -0.004738 1.387534 -0.006998 -0.233496 0.885419 0.412508 0.017901 0.000000 1.374222 0.014392 -0.041638 0.647073 -0.147728 -0.217674 0.000000 -1.019422 -0.040205 0.216918 1.600291 0.154717 0.407793 1.016102 1.336396 0.415905 -0.103561 -0.107375 0.975623 1.265651
0.333333 0.240016 -0.180369 0.059061 -0.014396 0.008368 -0.004701 1.368333 -0.000444 -0.230453 0.891449 0.450280 0.056558 0.000000 1.339098 0.009508 -0.053920 0.621977 -0.144479 -0.199078 0.000000 -1.004641 -0.047143 0.240446 1.523313 0.137922 0.430283 1.010931 1.326546 0.334328 -0.122866 -0.103402 0.992572 1.262061
0.350000 0.266905 -0.179968 0.055135 -0.014656 0.008348 -0.004747 1.340008 0.009887 -0.229801 0.880824 0.461772 0.068213 0.000000 1.298330 0.005623 -0.057459 0.590995 -0.143093 -0.185255 0.000000 -0.995806 -0.047412 0.277612 1.459913 0.111731 0.447995 0.982367 1.323399 0.267858 -0.133331 -0.095034 1.008010 1.260258
0.366667 0.292413 -0.185234 0.046754 -0.014683 0.008426 -0.004691 1.306546 0.027684 -0.237539 0.859231 0.480256 0.124761 0.000000 1.257991 -0.005505 -0.054986 0.561279 -0.133895 -0.172669 0.000000 -0.983659 -0.047416 0.316356 1.406168 0.082453 0.476099 0.955701 1.315130 0.197774 -0.162641 -0.058126 1.032136 1.254885
0.383333 0.288552 -0.187015 0.045078 -0.014558 0.008352 -0.004571 1.312292 0.035050 -0.238129 0.863156 0.524488 0.136474 0.000000 1.261193 -0.008110 -0.046380 0.559073 -0.128863 -0.169734 0.000000 -0.932791 -0.039785 0.349143 1.334125 0.054557 0.486442 0.927886 1.311344 0.130597 -0.195405 -0.040413 1.051528 1.252208
0.400000 0.289822 -0.187124 0.040594 -0.014627 0.008327 -0.004629 1.310272 0.035087 -0.242661 0.862793 0.565027 0.186566 0.000000 1.255986 -0.007060 -0.036103 0.555732 -0.122126 -0.166971 0.000000 -0.885965 -0.030983 0.393856 1.250422 0.008096 0.495727 0.930518 1.286737 0.071021 -0.246699 0.044580 1.084769 1.222301
0.416667 0.283214 -0.182734 0.042966 -0.014628 0.008243 -0.004630 1.319272 0.023935 -0.254164 0.862003 0.576465 0.228301 0.000000 1.273899 0.009714 -0.016371 0.576127 -0.127899 -0.193324 0.000000 -0.834515 -0.018864 0.414868 1.180477 -0.016795 0.511662 0.907850 1.280985 0.001265 -0.302304 0.095795 1.129542 1.213244
0.433333 0.283741 -0.181511 0.044910 -0.014814 0.008235 -0.004582 1.315322 0.017546 -0.261913 0.849896 0.540267 0.219936 0.000000 1.275291 0.019698 0.003295 0.578290 -0.133558 -0.199079 0.000000 -0.800333 -0.005108 0.433946 1.120022 -0.039105 0.534780 0.884111 1.277471 -0.061670 -0.360288 0.141659 1.174001 1.203972
0.450000 0.298327 -0.184416 0.039369 -0.014993 0.008183 -0.004528 1.301561 0.022226 -0.275204 0.829479 0.467718 0.194944 0.000000 1.264396 0.017040 0.024725 0.571763 -0.154052 -0.219537 0.000000 -0.786306 0.007919 0.455536 1.078939 -0.056246 0.560926 0.860439 1.274907 -0.123086 -0.424343 0.186955 1.240220 1.196613
0.466667 0.317520 -0.193322 0.037758 -0.015064 0.008248 -0.004467 1.272849 0.032857 -0.296023 0.807384 0.424643 0.200007 0.000000 1.241047 0.007842 0.047183 0.549680 -0.168984 -0.226471 0.000000 -0.782443 0.025674 0.472842 1.039339 -0.067208 0.578828 0.845021 1.273240 -0.182810 -0.481950 0.219105 1.283724 1.191353
0.483333 0.337136 -0.193161 0.035899 -0.015105 0.008249 -0.004407 1.247978 0.043018 -0.306755 0.790136 0.435454 0.211590 0.000000 1.218267 -0.001349 0.051467 0.539344 -0.173032 -0.224207 0.000000 -0.781274 0.032355 0.478795 1.004685 -0.080962 0.601423 0.847936 1.268555 -0.240379 -0.546508 0.249147 1.351370 1.175169
0.500000 0.364703 -0.196485 0.028831 -0.015325 0.008243 -0.004370 1.211513 0.060444 -0.315551 0.755702 0.418426 0.221235 0.000000 1.189920 -0.015644 0.055531 0.528828 -0.169833 -0.223360 0.000000 -0.794305 0.043102 0.486773 0.985083 -0.093984 0.607622 0.860597 1.262545 -0.286045 -0.610462 0.244309 1.476692 1.165273
0.516667 0.383729 -0.196738 0.026000 -0.015372 0.008194 -0.004349 1.187597 0.066911 -0.322356 0.728220 0.414657 0.224353 0.000000 1.182759 -0.020942 0.062123 0.535603 -0.183081 -0.238898 0.000000 -0.800001 0.048914 0.481807 0.965043 -0.107988 0.603211 0.895239 1.254465 -0.368135 -0.650522 0.185752 1.603551 1.149052
0.533333 0.396427 -0.190085 0.030681 -0.015323 0.008249 -0.004343 1.172225 0.060250 -0.322967 0.723703 0.393748 0.212607 0.000000 1.178571 -0.017210 0.064829 0.546647 -0.195277 -0.242570 0.000000 -0.797454 0.057307 0.465162 0.939362 -0.119496 0.597400 0.923948 1.253635 -0.417922 -0.685145 0.150096 1.691768 1.147259
0.550000 0.409718 -0.184281 0.034301 -0.015315 0.008285 -0.004202 1.150262 0.064090 -0.324262 0.708713 0.372308 0.206931 0.000000 1.167621 -0.022253 0.060689 0.558943 -0.187530 -0.228865 0.000000 -0.796393 0.059003 0.445347 0.922237 -0.120576 0.576947 0.942964 1.255702 -0.444547 -0.710775 0.110103 1.750042 1.149469
